# Blender v2.81 (sub 16) OBJ File: 'LevelDesign.blend'
# www.blender.org
mtllib CardboardBox_01.mtl
o Cube.003
v -1.626270 0.010000 -8.893375
v -1.626270 2.000000 -8.893375
v -1.626270 0.010000 -11.106625
v -1.626270 2.000000 -11.106625
v 1.626270 0.010000 -8.893375
v 1.626270 2.000000 -8.893375
v 1.626270 0.010000 -11.106625
v 1.626270 2.000000 -11.106625
v -1.626270 0.010000 -11.106625
v -1.626270 0.010000 -11.106625
v -1.626270 0.010000 -8.893375
v -1.626270 0.010000 -8.893375
v -1.626270 2.000000 -8.893375
v -1.626270 2.000000 -8.893375
v -1.626270 2.000000 -11.106625
v -1.626270 2.000000 -11.106625
v 1.626270 0.010000 -11.106625
v 1.626270 0.010000 -11.106625
v 1.626270 2.000000 -11.106625
v 1.626270 2.000000 -11.106625
v 1.626270 0.010000 -8.893375
v 1.626270 0.010000 -8.893375
v 1.626270 2.000000 -8.893375
v 1.626270 2.000000 -8.893375
vt -0.110662 0.200000
vt 0.110662 0.000000
vt -0.110662 0.000000
vt -0.162627 0.200000
vt 0.162627 0.000000
vt -0.162627 0.000000
vt 0.110662 0.200000
vt -0.110662 0.000000
vt 0.110662 0.000000
vt 0.162627 0.200000
vt -0.162627 0.000000
vt 0.162627 0.000000
vt 0.086343 0.046682
vt -0.238911 -0.174643
vt -0.238911 0.046682
vt -0.238911 0.046682
vt 0.086343 -0.174643
vt 0.086343 0.046682
vt 0.110662 0.200000
vt 0.162627 0.200000
vt -0.110662 0.200000
vt -0.162627 0.200000
vt 0.086343 -0.174643
vt -0.238911 -0.174643
vn -1.0000 0.0000 0.0000
vn 0.0000 0.0000 -1.0000
vn 1.0000 0.0000 0.0000
vn 0.0000 0.0000 1.0000
vn 0.0000 -1.0000 0.0000
vn 0.0000 1.0000 0.0000
usemtl Carboard_01
s off
f 13/1/1 9/2/1 11/3/1
f 16/4/2 17/5/2 10/6/2
f 20/7/3 21/8/3 18/9/3
f 24/10/4 12/11/4 22/12/4
f 7/13/5 1/14/5 3/15/5
f 4/16/6 6/17/6 8/18/6
f 13/1/1 15/19/1 9/2/1
f 16/4/2 19/20/2 17/5/2
f 20/7/3 23/21/3 21/8/3
f 24/10/4 14/22/4 12/11/4
f 7/13/5 5/23/5 1/14/5
f 4/16/6 2/24/6 6/17/6
